<svg xmlns="http://www.w3.org/2000/svg" width="17.452" height="16.061" viewBox="0 0 17.452 16.061">
  <g id="Group_3435" data-name="Group 3435" transform="translate(0)">
    <path id="Path_1564" data-name="Path 1564" d="M44.549,47H30.9A1.911,1.911,0,0,0,29,48.9v9.291a1.9,1.9,0,0,0,1.9,1.884h6.612l4.674,2.937a.355.355,0,0,0,.185.054.38.38,0,0,0,.169-.042.346.346,0,0,0,.181-.3V60.07h1.826a1.9,1.9,0,0,0,1.9-1.884V48.9A1.911,1.911,0,0,0,44.549,47ZM45.76,58.186a1.209,1.209,0,0,1-1.211,1.192H42.374a.341.341,0,0,0-.342.346v2.364L37.8,59.432a.345.345,0,0,0-.185-.054H30.9a1.209,1.209,0,0,1-1.211-1.192V48.9a1.219,1.219,0,0,1,1.211-1.2H44.549a1.219,1.219,0,0,1,1.211,1.2Z" transform="translate(-29 -47)" fill="#888"/>
  </g>
</svg>
