<svg xmlns="http://www.w3.org/2000/svg" width="73" height="73" viewBox="0 0 73 73"><g fill="#fff" opacity="0.5"><path d="M 36.5 72.5 C 31.63981056213379 72.5 26.92527008056641 71.54824066162109 22.48732948303223 69.67115020751953 C 18.20054054260254 67.85797882080078 14.35050010681152 65.26217651367188 11.04415988922119 61.95584106445313 C 7.737820148468018 58.64950180053711 5.142020225524902 54.79946136474609 3.328850030899048 50.51266860961914 C 1.451760053634644 46.07472991943359 0.5 41.36019134521484 0.5 36.5 C 0.5 31.63981056213379 1.451760053634644 26.92527008056641 3.328850030899048 22.48732948303223 C 5.142020225524902 18.20054054260254 7.737820148468018 14.35050010681152 11.04415988922119 11.04415988922119 C 14.35050010681152 7.737820148468018 18.20054054260254 5.142020225524902 22.48732948303223 3.328850030899048 C 26.92527008056641 1.451760053634644 31.63981056213379 0.5 36.5 0.5 C 41.36019134521484 0.5 46.07472991943359 1.451760053634644 50.51266860961914 3.328850030899048 C 54.79946136474609 5.142020225524902 58.64950180053711 7.737820148468018 61.95584106445313 11.04415988922119 C 65.26217651367188 14.35050010681152 67.85797882080078 18.20054054260254 69.67115020751953 22.48732948303223 C 71.54824066162109 26.92527008056641 72.5 31.63981056213379 72.5 36.5 C 72.5 41.36019134521484 71.54824066162109 46.07472991943359 69.67115020751953 50.51266860961914 C 67.85797882080078 54.79946136474609 65.26217651367188 58.64950180053711 61.95584106445313 61.95584106445313 C 58.64950180053711 65.26217651367188 54.79946136474609 67.85797882080078 50.51266860961914 69.67115020751953 C 46.07472991943359 71.54824066162109 41.36019134521484 72.5 36.5 72.5 Z" stroke="none"/><path d="M 36.5 1 C 31.70708847045898 1 27.05807876586914 1.938468933105469 22.68210983276367 3.789360046386719 C 18.45491027832031 5.577308654785156 14.65829086303711 8.137130737304688 11.39770889282227 11.39770889282227 C 8.137130737304688 14.65829086303711 5.577308654785156 18.45491027832031 3.789360046386719 22.68210983276367 C 1.938468933105469 27.05807876586914 1 31.70708847045898 1 36.5 C 1 41.29290771484375 1.938468933105469 45.94191741943359 3.789360046386719 50.31789016723633 C 5.577308654785156 54.54508972167969 8.137130737304688 58.34170913696289 11.39770889282227 61.60229110717773 C 14.65829086303711 64.86286926269531 18.45491027832031 67.42269134521484 22.68210983276367 69.21063995361328 C 27.05807876586914 71.06153106689453 31.70708847045898 72 36.5 72 C 41.29290771484375 72 45.94191741943359 71.06153106689453 50.31789016723633 69.21063995361328 C 54.54508972167969 67.42269134521484 58.34170913696289 64.86286926269531 61.60229110717773 61.60229110717773 C 64.86286926269531 58.34170913696289 67.42269134521484 54.54508972167969 69.21063995361328 50.31789016723633 C 71.06153106689453 45.94191741943359 72 41.29290771484375 72 36.5 C 72 31.70708847045898 71.06153106689453 27.05807876586914 69.21063995361328 22.68210983276367 C 67.42269134521484 18.45491027832031 64.86286926269531 14.65829086303711 61.60229110717773 11.39770889282227 C 58.34170913696289 8.137130737304688 54.54508972167969 5.577308654785156 50.31789016723633 3.789360046386719 C 45.94191741943359 1.938468933105469 41.29290771484375 1 36.5 1 M 36.5 0 C 56.65839004516602 0 73 16.34160995483398 73 36.5 C 73 56.65839004516602 56.65839004516602 73 36.5 73 C 16.34160995483398 73 0 56.65839004516602 0 36.5 C 0 16.34160995483398 16.34160995483398 0 36.5 0 Z" stroke="none"/></g><text transform="translate(8.568 41.043)" fill="#1c1c1c" font-size="10" font-family="SegoeUI, Segoe UI" letter-spacing="0.05em"><tspan x="0" y="0">Play Video</tspan></text></svg>