<svg xmlns="http://www.w3.org/2000/svg" width="15.245" height="19.692" viewBox="0 0 15.245 19.692">
  <path id="Path_1495" data-name="Path 1495" d="M128.369,614.653a.389.389,0,0,0,.567-.282c.051-.2.175-.7.23-.909a.547.547,0,0,0-.162-.63,3.264,3.264,0,0,1-.746-2.219,5.357,5.357,0,0,1,5.569-5.417c3.038,0,4.706,1.856,4.706,4.335,0,3.262-1.444,6.014-3.586,6.014a1.75,1.75,0,0,1-1.785-2.178,24.181,24.181,0,0,0,1-4.014,1.515,1.515,0,0,0-1.525-1.7c-1.21,0-2.182,1.251-2.182,2.928a4.345,4.345,0,0,0,.362,1.79s-1.238,5.245-1.455,6.163a12.681,12.681,0,0,0-.034,4.3.151.151,0,0,0,.269.065,12.076,12.076,0,0,0,2.041-3.7c.14-.5.8-3.109.8-3.109a3.243,3.243,0,0,0,2.763,1.409c3.637,0,6.1-3.315,6.1-7.752,0-3.355-2.841-6.479-7.16-6.479-5.375,0-8.085,3.853-8.085,7.066C126.052,612.278,126.789,614.009,128.369,614.653Z" transform="translate(-126.052 -603.267)" fill="#dfdfdf"/>
</svg>
