<svg xmlns="http://www.w3.org/2000/svg" width="17.668" height="14.359" viewBox="0 0 17.668 14.359">
  <path id="Path_1484" data-name="Path 1484" d="M12.208,620.2a10.309,10.309,0,0,0,15.86-9.155,7.348,7.348,0,0,0,1.808-1.876,7.237,7.237,0,0,1-2.082.57,3.627,3.627,0,0,0,1.593-2.005,7.251,7.251,0,0,1-2.3.88,3.627,3.627,0,0,0-6.177,3.306,10.284,10.284,0,0,1-7.471-3.788,3.629,3.629,0,0,0,1.122,4.84,3.624,3.624,0,0,1-1.643-.454,3.63,3.63,0,0,0,2.907,3.6,3.629,3.629,0,0,1-1.636.062,3.628,3.628,0,0,0,3.386,2.518A7.288,7.288,0,0,1,12.208,620.2Z" transform="translate(-12.208 -607.469)" fill="#888"/>
</svg>
