<svg xmlns="http://www.w3.org/2000/svg" xmlns:xlink="http://www.w3.org/1999/xlink" width="314.784" height="149.389" viewBox="0 0 314.784 149.389">
  <defs>
    <clipPath id="clip-path">
      <rect width="314.784" height="145.171" fill="none"/>
    </clipPath>
  </defs>
  <g id="Group_3904" data-name="Group 3904" transform="translate(-750 -256.175)">
    <g id="Group_3554" data-name="Group 3554" transform="translate(864.475 310.372) rotate(-45)">
      <g id="Group_3552" data-name="Group 3552" transform="translate(0 0)">
        <rect id="Rectangle_2107" data-name="Rectangle 2107" width="11.336" height="41.677" rx="5.668" transform="translate(13.943 40.422)" fill="#d82f25"/>
        <path id="Path_1633" data-name="Path 1633" d="M282.109,219.3s-9.96.423-11.529,4.709,1.328,22.876,12.072,27.162Z" transform="translate(-270.183 -174.442)" fill="#d82f25"/>
        <path id="Path_1634" data-name="Path 1634" d="M285.013,186.761s2.354-.785,3.561-.423c0,0,.694,6.61,1.237,7.334s.876,3.5.876,4.467l-6.459.845-.633.181a27.451,27.451,0,0,1,1.177-4.919C285.375,193.008,285.013,186.761,285.013,186.761Z" transform="translate(-279.122 -152.409)" fill="#d82f25"/>
        <path id="Path_1635" data-name="Path 1635" d="M291.322,119.3s-.185-11.951,5.972-19.194,14.825-10.382,26.495-10.382v-4.95s-19.131-.725-28.668,12.8-6.487,25.593-6.487,25.593Z" transform="translate(-282.173 -84.766)" fill="#d82f25"/>
      </g>
      <g id="Group_3553" data-name="Group 3553" transform="translate(40.949 0)">
        <path id="Path_1636" data-name="Path 1636" d="M453.336,208.982A2.915,2.915,0,0,0,450.492,206h-5.649A2.915,2.915,0,0,0,442,208.982V244.7a2.915,2.915,0,0,0,2.844,2.982h5.649a2.915,2.915,0,0,0,2.844-2.982Z" transform="translate(-425.663 -165.578)" fill="#d82f25"/>
        <path id="Path_1637" data-name="Path 1637" d="M481.312,219.3s9.96.423,11.529,4.709-1.328,22.876-12.072,27.162Z" transform="translate(-451.505 -174.442)" fill="#d82f25"/>
        <path id="Path_1638" data-name="Path 1638" d="M489.159,186.761s-2.354-.785-3.561-.423c0,0-.694,6.61-1.237,7.334s-.875,3.5-.875,4.467l6.459.845.634.181a27.474,27.474,0,0,0-1.177-4.919C488.8,193.008,489.159,186.761,489.159,186.761Z" transform="translate(-453.316 -152.409)" fill="#d82f25"/>
        <path id="Path_1639" data-name="Path 1639" d="M425.584,119.3s.126-11.951-6.031-19.194S405,89.722,393,89.722v-4.95s19.189-.725,28.726,12.8,6.516,25.593,6.516,25.593Z" transform="translate(-393 -84.766)" fill="#d82f25"/>
      </g>
    </g>
    <g id="Repeat_Grid_57" data-name="Repeat Grid 57" transform="translate(750 260.393)" clip-path="url(#clip-path)">
      <g id="Group_3551" data-name="Group 3551" transform="translate(-691.898 -314.225)">
        <g id="Group_3470" data-name="Group 3470" transform="translate(798.168 360.166)">
          <path id="Path_1567" data-name="Path 1567" d="M623.628,446.738h-104.9a1.927,1.927,0,0,1-1.846-1.376l-16.9-56.652a1.927,1.927,0,0,1,1.846-2.477H640.568a1.926,1.926,0,0,1,1.846,2.478l-16.939,56.652A1.928,1.928,0,0,1,623.628,446.738Zm-103.464-3.854H622.193l15.788-52.8H504.418Z" transform="translate(-499.906 -386.233)" fill="#d82f25"/>
        </g>
        <g id="Group_3471" data-name="Group 3471" transform="translate(810.241 416.818)">
          <path id="Path_1568" data-name="Path 1568" d="M648.5,536.928H534.678a1.927,1.927,0,0,1-1.053-.313c-3.66-2.389-5.575-5.227-5.692-8.438-.2-5.586,5.341-9.872,5.577-10.052a1.927,1.927,0,0,1,2.338,3.063h0c-1.169.9-4.179,3.885-4.064,6.86.068,1.764,1.239,3.453,3.483,5.026H648.5a1.927,1.927,0,0,1,0,3.854Z" transform="translate(-527.928 -517.731)" fill="#d82f25"/>
        </g>
        <g id="Group_3472" data-name="Group 3472" transform="translate(767.816 332.301)">
          <path id="Path_1569" data-name="Path 1569" d="M461.731,353.272a1.928,1.928,0,0,1-1.851-1.4l-6.438-22.453-20.135-3.638v5.292l19.127,2.441a1.927,1.927,0,0,1-.488,3.823l-20.809-2.656a1.927,1.927,0,0,1-1.683-1.912v-9.294a1.927,1.927,0,0,1,2.269-1.9l23.584,4.26a1.927,1.927,0,0,1,1.51,1.365l6.769,23.605a1.929,1.929,0,0,1-1.853,2.459Z" transform="translate(-429.453 -321.553)" fill="#d82f25"/>
        </g>
        <g id="Group_3473" data-name="Group 3473" transform="translate(899.979 441.913)">
          <path id="Path_1570" data-name="Path 1570" d="M745.273,593.464a8.747,8.747,0,1,1,9.048-8.742A8.909,8.909,0,0,1,745.273,593.464Zm0-13.63a4.9,4.9,0,1,0,5.194,4.888A5.054,5.054,0,0,0,745.273,579.833Z" transform="translate(-736.225 -575.98)" fill="#d82f25"/>
        </g>
        <g id="Group_3474" data-name="Group 3474" transform="translate(822.414 441.663)">
          <path id="Path_1571" data-name="Path 1571" d="M565.231,592.885a8.747,8.747,0,1,1,9.048-8.741A8.908,8.908,0,0,1,565.231,592.885Zm0-13.63a4.9,4.9,0,1,0,5.194,4.888A5.054,5.054,0,0,0,565.231,579.255Z" transform="translate(-556.184 -575.401)" fill="#d82f25"/>
        </g>
        <g id="Group_3475" data-name="Group 3475" transform="translate(802.683 375.306)">
          <path id="Path_1572" data-name="Path 1572" d="M641.281,425.228H512.314a1.927,1.927,0,1,1,0-3.853H641.281a1.927,1.927,0,1,1,0,3.853Z" transform="translate(-510.387 -421.375)" fill="#d82f25"/>
        </g>
        <g id="Group_3476" data-name="Group 3476" transform="translate(808.472 394.714)">
          <path id="Path_1573" data-name="Path 1573" d="M643.85,470.277h-118.1a1.927,1.927,0,0,1,0-3.853h118.1a1.927,1.927,0,1,1,0,3.853Z" transform="translate(-523.822 -466.424)" fill="#d82f25"/>
        </g>
        <g id="Group_3477" data-name="Group 3477" transform="translate(833.018 360.166)">
          <path id="Path_1574" data-name="Path 1574" d="M582.725,446.738a1.927,1.927,0,0,1-1.927-1.927V388.16a1.927,1.927,0,0,1,3.854,0v56.652A1.927,1.927,0,0,1,582.725,446.738Z" transform="translate(-580.798 -386.233)" fill="#d82f25"/>
        </g>
        <g id="Group_3478" data-name="Group 3478" transform="translate(870.171 360.166)">
          <path id="Path_1575" data-name="Path 1575" d="M668.963,446.738a1.927,1.927,0,0,1-1.927-1.927V388.16a1.927,1.927,0,1,1,3.853,0v56.652A1.927,1.927,0,0,1,668.963,446.738Z" transform="translate(-667.036 -386.233)" fill="#d82f25"/>
        </g>
        <g id="Group_3479" data-name="Group 3479" transform="translate(907.1 360.166)">
          <path id="Path_1576" data-name="Path 1576" d="M754.681,446.738a1.927,1.927,0,0,1-1.927-1.927V388.16a1.927,1.927,0,1,1,3.853,0v56.652A1.927,1.927,0,0,1,754.681,446.738Z" transform="translate(-752.754 -386.233)" fill="#d82f25"/>
        </g>
        <g id="Group_3481" data-name="Group 3481" transform="translate(795.897 356.984)">
          <path id="Path_1577" data-name="Path 1577" d="M618.441,439.519H513.54a2.011,2.011,0,0,1-1.927-1.436l-16.9-56.652a2.01,2.01,0,0,1,1.927-2.585H635.38a2.01,2.01,0,0,1,1.926,2.587l-16.939,56.652A2.011,2.011,0,0,1,618.441,439.519Zm-103.4-4.021H616.944l15.737-52.631H499.343Z" transform="translate(-494.635 -378.846)" fill="#f5f5f5"/>
        </g>
        <g id="Group_3482" data-name="Group 3482" transform="translate(807.97 413.636)">
          <path id="Path_1578" data-name="Path 1578" d="M643.314,529.708H529.49a2.007,2.007,0,0,1-1.1-.327c-3.684-2.4-5.611-5.265-5.729-8.5-.2-5.629,5.372-9.941,5.61-10.122a2.01,2.01,0,0,1,2.44,3.2h0c-1.16.893-4.145,3.853-4.031,6.791.067,1.731,1.219,3.392,3.425,4.945H643.314a2.01,2.01,0,1,1,0,4.021Z" transform="translate(-522.657 -510.344)" fill="#fff"/>
        </g>
        <g id="Group_3483" data-name="Group 3483" transform="translate(765.544 329.118)">
          <path id="Path_1579" data-name="Path 1579" d="M456.543,346.053a2.012,2.012,0,0,1-1.932-1.457l-6.424-22.4L428.2,318.582V323.7l19.053,2.431a2.01,2.01,0,0,1-.509,3.988l-20.81-2.656a2.011,2.011,0,0,1-1.756-1.995v-9.293a2.011,2.011,0,0,1,2.368-1.978l23.583,4.26a2.011,2.011,0,0,1,1.575,1.424l6.769,23.6a2.012,2.012,0,0,1-1.934,2.566Z" transform="translate(-424.181 -314.166)" fill="#f5f5f5"/>
        </g>
        <g id="Group_3484" data-name="Group 3484" transform="translate(897.707 438.73)">
          <path id="Path_1580" data-name="Path 1580" d="M740.085,586.244a8.831,8.831,0,1,1,9.131-8.826A8.993,8.993,0,0,1,740.085,586.244Zm0-13.63a4.814,4.814,0,1,0,5.11,4.8A4.971,4.971,0,0,0,740.085,572.614Z" transform="translate(-730.953 -568.593)" fill="#fff"/>
        </g>
        <g id="Group_3485" data-name="Group 3485" transform="translate(820.142 438.481)">
          <path id="Path_1581" data-name="Path 1581" d="M560.043,585.665a8.831,8.831,0,1,1,9.132-8.825A8.993,8.993,0,0,1,560.043,585.665Zm0-13.63a4.814,4.814,0,1,0,5.111,4.8A4.97,4.97,0,0,0,560.043,572.035Z" transform="translate(-550.912 -568.014)" fill="#fff"/>
        </g>
        <g id="Group_3486" data-name="Group 3486" transform="translate(800.412 372.124)">
          <path id="Path_1582" data-name="Path 1582" d="M636.093,418.009H507.126a2.01,2.01,0,1,1,0-4.021H636.093a2.01,2.01,0,0,1,0,4.021Z" transform="translate(-505.115 -413.988)" fill="#f5f5f5"/>
        </g>
        <g id="Group_3487" data-name="Group 3487" transform="translate(806.2 391.532)">
          <path id="Path_1583" data-name="Path 1583" d="M638.663,463.058h-118.1a2.01,2.01,0,1,1,0-4.021h118.1a2.01,2.01,0,0,1,0,4.021Z" transform="translate(-518.55 -459.037)" fill="#f5f5f5"/>
        </g>
        <g id="Group_3488" data-name="Group 3488" transform="translate(830.747 356.984)">
          <path id="Path_1584" data-name="Path 1584" d="M577.537,439.519a2.01,2.01,0,0,1-2.01-2.011V380.857a2.01,2.01,0,1,1,4.021,0v56.652A2.011,2.011,0,0,1,577.537,439.519Z" transform="translate(-575.527 -378.846)" fill="#f5f5f5"/>
        </g>
        <g id="Group_3489" data-name="Group 3489" transform="translate(867.899 356.984)">
          <path id="Path_1585" data-name="Path 1585" d="M663.775,439.519a2.011,2.011,0,0,1-2.011-2.011V380.857a2.011,2.011,0,0,1,4.021,0v56.652A2.011,2.011,0,0,1,663.775,439.519Z" transform="translate(-661.764 -378.846)" fill="#f5f5f5"/>
        </g>
        <g id="Group_3490" data-name="Group 3490" transform="translate(904.828 356.984)">
          <path id="Path_1586" data-name="Path 1586" d="M749.493,439.519a2.011,2.011,0,0,1-2.01-2.011V380.857a2.011,2.011,0,0,1,4.021,0v56.652A2.011,2.011,0,0,1,749.493,439.519Z" transform="translate(-747.482 -378.846)" fill="#f5f5f5"/>
        </g>
        <path id="Path_1587" data-name="Path 1587" d="M828.5,302.617a2.112,2.112,0,0,1-2.112-2.112V283.6a2.112,2.112,0,0,1,4.224,0v16.9A2.112,2.112,0,0,1,828.5,302.617Z" transform="translate(107.899 41.663)" fill="#fff"/>
        <path id="Path_1588" data-name="Path 1588" d="M821.278,309.835h-16.9a2.112,2.112,0,1,1,0-4.224h16.9a2.112,2.112,0,1,1,0,4.224Z" transform="translate(123.567 25.994)" fill="#fff"/>
        <g id="Group_3496" data-name="Group 3496" transform="translate(717.419 430.939)">
          <path id="Path_1589" data-name="Path 1589" d="M366.37,553.525H313.982a1.508,1.508,0,1,1,0-3.016H366.37a1.508,1.508,0,1,1,0,3.016Z" transform="translate(-312.474 -550.509)" fill="#d82f25"/>
        </g>
        <g id="Group_3497" data-name="Group 3497" transform="translate(706.305 395.862)">
          <path id="Path_1590" data-name="Path 1590" d="M340.573,472.1H288.185a1.508,1.508,0,1,1,0-3.016h52.388a1.508,1.508,0,1,1,0,3.016Z" transform="translate(-286.677 -469.088)" fill="#d82f25"/>
        </g>
        <g id="Group_3498" data-name="Group 3498" transform="translate(693.356 413.04)">
          <path id="Path_1591" data-name="Path 1591" d="M310.515,511.977H258.127a1.508,1.508,0,0,1,0-3.016h52.388a1.508,1.508,0,0,1,0,3.016Z" transform="translate(-256.619 -508.961)" fill="#d82f25"/>
        </g>
        <g id="Group_3499" data-name="Group 3499" transform="translate(762.811 413.04)">
          <path id="Path_1592" data-name="Path 1592" d="M434.11,511.977H419.344a1.508,1.508,0,0,1,0-3.016H434.11a1.508,1.508,0,1,1,0,3.016Z" transform="translate(-417.836 -508.961)" fill="#d82f25"/>
        </g>
        <g id="Group_3500" data-name="Group 3500" transform="translate(715.961 429.481)">
          <path id="Path_1593" data-name="Path 1593" d="M362.985,550.14H310.6a1.508,1.508,0,0,1,0-3.016h52.388a1.508,1.508,0,0,1,0,3.016Z" transform="translate(-309.089 -547.124)" fill="#fff"/>
        </g>
        <g id="Group_3501" data-name="Group 3501" transform="translate(704.847 394.403)">
          <path id="Path_1594" data-name="Path 1594" d="M337.188,468.719H284.8a1.508,1.508,0,1,1,0-3.016h52.388a1.508,1.508,0,0,1,0,3.016Z" transform="translate(-283.292 -465.703)" fill="#fff"/>
        </g>
        <g id="Group_3502" data-name="Group 3502" transform="translate(691.898 411.582)">
          <path id="Path_1595" data-name="Path 1595" d="M307.131,508.592H254.743a1.508,1.508,0,0,1,0-3.016h52.388a1.508,1.508,0,0,1,0,3.016Z" transform="translate(-253.235 -505.576)" fill="#fff"/>
        </g>
        <g id="Group_3503" data-name="Group 3503" transform="translate(761.352 411.582)">
          <path id="Path_1596" data-name="Path 1596" d="M430.725,508.592H415.959a1.508,1.508,0,1,1,0-3.016h14.766a1.508,1.508,0,1,1,0,3.016Z" transform="translate(-414.451 -505.576)" fill="#fff"/>
        </g>
        <g id="Group_3513" data-name="Group 3513" transform="translate(968.838 314.915)">
          <g id="Group_3505" data-name="Group 3505" transform="translate(17.414 0)">
            <path id="Path_1597" data-name="Path 1597" d="M986.732,337.218a1.508,1.508,0,0,1-1.508-1.508v-8.9a1.508,1.508,0,1,1,3.016,0v8.9A1.508,1.508,0,0,1,986.732,337.218Z" transform="translate(-985.224 -325.299)" fill="#d82f25"/>
          </g>
          <g id="Group_3506" data-name="Group 3506" transform="translate(17.414 25.924)">
            <path id="Path_1598" data-name="Path 1598" d="M986.732,397.392a1.508,1.508,0,0,1-1.508-1.508v-8.9a1.508,1.508,0,0,1,3.016,0v8.9A1.508,1.508,0,0,1,986.732,397.392Z" transform="translate(-985.224 -385.473)" fill="#d82f25"/>
          </g>
          <g id="Group_3507" data-name="Group 3507" transform="translate(23.432 5.1)">
            <path id="Path_1599" data-name="Path 1599" d="M1000.7,346.45a1.508,1.508,0,0,1-1.067-2.574l6.3-6.3a1.508,1.508,0,0,1,2.132,2.133l-6.3,6.3A1.5,1.5,0,0,1,1000.7,346.45Z" transform="translate(-999.192 -337.138)" fill="#d82f25"/>
          </g>
          <g id="Group_3508" data-name="Group 3508" transform="translate(5.101 23.431)">
            <path id="Path_1600" data-name="Path 1600" d="M958.15,389a1.508,1.508,0,0,1-1.066-2.574l6.3-6.3a1.508,1.508,0,1,1,2.132,2.133l-6.3,6.3A1.5,1.5,0,0,1,958.15,389Z" transform="translate(-956.643 -379.687)" fill="#d82f25"/>
          </g>
          <g id="Group_3509" data-name="Group 3509" transform="translate(25.924 17.414)">
            <path id="Path_1601" data-name="Path 1601" d="M1015.389,368.736h-8.9a1.508,1.508,0,1,1,0-3.016h8.9a1.508,1.508,0,0,1,0,3.016Z" transform="translate(-1004.977 -365.72)" fill="#d82f25"/>
          </g>
          <g id="Group_3510" data-name="Group 3510" transform="translate(0 17.414)">
            <path id="Path_1602" data-name="Path 1602" d="M955.215,368.736h-8.9a1.508,1.508,0,1,1,0-3.016h8.9a1.508,1.508,0,0,1,0,3.016Z" transform="translate(-944.803 -365.72)" fill="#d82f25"/>
          </g>
          <g id="Group_3511" data-name="Group 3511" transform="translate(23.432 23.431)">
            <path id="Path_1603" data-name="Path 1603" d="M1007,389a1.5,1.5,0,0,1-1.066-.442l-6.3-6.3a1.508,1.508,0,1,1,2.132-2.133l6.3,6.3A1.508,1.508,0,0,1,1007,389Z" transform="translate(-999.192 -379.687)" fill="#d82f25"/>
          </g>
          <g id="Group_3512" data-name="Group 3512" transform="translate(5.101 5.1)">
            <path id="Path_1604" data-name="Path 1604" d="M964.446,346.45a1.5,1.5,0,0,1-1.066-.442l-6.3-6.3a1.508,1.508,0,0,1,2.133-2.133l6.3,6.3a1.508,1.508,0,0,1-1.066,2.574Z" transform="translate(-956.643 -337.138)" fill="#d82f25"/>
          </g>
        </g>
        <g id="Group_3514" data-name="Group 3514" transform="translate(986.109 314.225)">
          <path id="Path_1605" data-name="Path 1605" d="M985.814,334.445a.922.922,0,0,1-.922-.921v-8.9a.921.921,0,1,1,1.843,0v8.9A.922.922,0,0,1,985.814,334.445Z" transform="translate(-984.892 -323.698)" fill="#f5f5f5"/>
        </g>
        <g id="Group_3515" data-name="Group 3515" transform="translate(986.109 340.149)">
          <path id="Path_1606" data-name="Path 1606" d="M985.814,394.619a.922.922,0,0,1-.922-.921v-8.9a.921.921,0,1,1,1.843,0v8.9A.922.922,0,0,1,985.814,394.619Z" transform="translate(-984.892 -383.872)" fill="#f5f5f5"/>
        </g>
        <g id="Group_3516" data-name="Group 3516" transform="translate(992.127 319.326)">
          <path id="Path_1607" data-name="Path 1607" d="M999.782,343.676a.921.921,0,0,1-.651-1.573l6.3-6.3a.921.921,0,1,1,1.3,1.3l-6.3,6.3A.917.917,0,0,1,999.782,343.676Z" transform="translate(-998.86 -335.537)" fill="#f5f5f5"/>
        </g>
        <g id="Group_3517" data-name="Group 3517" transform="translate(973.796 337.657)">
          <path id="Path_1608" data-name="Path 1608" d="M957.232,386.225a.922.922,0,0,1-.652-1.573l6.3-6.3a.921.921,0,1,1,1.3,1.3l-6.3,6.3A.918.918,0,0,1,957.232,386.225Z" transform="translate(-956.311 -378.086)" fill="#f5f5f5"/>
        </g>
        <g id="Group_3518" data-name="Group 3518" transform="translate(994.62 331.639)">
          <path id="Path_1609" data-name="Path 1609" d="M1014.471,365.962h-8.9a.921.921,0,1,1,0-1.843h8.9a.921.921,0,0,1,0,1.843Z" transform="translate(-1004.646 -364.119)" fill="#f5f5f5"/>
        </g>
        <g id="Group_3519" data-name="Group 3519" transform="translate(968.695 331.639)">
          <path id="Path_1610" data-name="Path 1610" d="M954.3,365.962h-8.9a.921.921,0,1,1,0-1.843h8.9a.921.921,0,1,1,0,1.843Z" transform="translate(-944.472 -364.119)" fill="#f5f5f5"/>
        </g>
        <g id="Group_3520" data-name="Group 3520" transform="translate(992.127 337.657)">
          <path id="Path_1611" data-name="Path 1611" d="M1006.078,386.225a.917.917,0,0,1-.651-.27l-6.3-6.3a.921.921,0,0,1,1.3-1.3l6.3,6.3a.921.921,0,0,1-.651,1.573Z" transform="translate(-998.86 -378.087)" fill="#f5f5f5"/>
        </g>
        <g id="Group_3521" data-name="Group 3521" transform="translate(973.796 319.326)">
          <path id="Path_1612" data-name="Path 1612" d="M963.528,343.676a.92.92,0,0,1-.651-.27l-6.3-6.3a.922.922,0,1,1,1.3-1.3l6.3,6.3a.921.921,0,0,1-.652,1.573Z" transform="translate(-956.311 -335.537)" fill="#f5f5f5"/>
        </g>
      </g>
    </g>
  </g>
</svg>
