<svg xmlns="http://www.w3.org/2000/svg" width="14.499" height="15.498" viewBox="0 0 14.499 15.498">
  <g id="noun_Log_Out_1701612" data-name="noun_Log Out_1701612" transform="translate(-5.625 -4.396)">
    <path id="Path_1690" data-name="Path 1690" d="M10.082,6.058V8.074a.4.4,0,1,0,.791,0V6.058a.877.877,0,0,1,.87-.87h6.681a.877.877,0,0,1,.87.87V18.234a.877.877,0,0,1-.87.87H11.782a.877.877,0,0,1-.87-.87V16.218a.4.4,0,1,0-.791,0v2.016a1.67,1.67,0,0,0,1.66,1.66h6.681a1.67,1.67,0,0,0,1.66-1.66V6.058a1.67,1.67,0,0,0-1.66-1.66H11.782A1.631,1.631,0,0,0,10.082,6.058Zm-4.428,5.93a.433.433,0,0,0,0,.316c.04.04.04.079.079.119l2.688,2.688a.391.391,0,0,0,.553-.553L7,12.541h7.906a.4.4,0,1,0,0-.791H7L9.015,9.735a.382.382,0,0,0,0-.553.382.382,0,0,0-.553,0L5.773,11.869C5.694,11.909,5.694,11.948,5.655,11.988Z" transform="translate(0)"/>
  </g>
</svg>
