<svg id="Group_3085" data-name="Group 3085" xmlns="http://www.w3.org/2000/svg" width="23.887" height="24.761" viewBox="0 0 23.887 24.761">
  <path id="Path_1507" data-name="Path 1507" d="M990.454-8.414a1.84,1.84,0,0,1-.574-1.042,2.594,2.594,0,0,1-.026-.374q0-2.046,0-4.091a1.883,1.883,0,0,1,.586-1.575c-.04-.047-.081-.1-.123-.144a1.74,1.74,0,0,1-.462-1.187c0-1.467,0-2.934,0-4.4a1.755,1.755,0,0,1,1.777-1.786q8.845-.005,17.691,0a1.755,1.755,0,0,1,1.759,1.759c.006,1.482,0,2.963,0,4.445a1.779,1.779,0,0,1-.59,1.3c.039.047.073.092.111.134a1.783,1.783,0,0,1,.481,1.247c0,1.246,0,2.491,0,3.737a.383.383,0,0,0,.157.333,6.523,6.523,0,0,1,2.493,5.459,6.614,6.614,0,0,1-5.6,6.262,6.486,6.486,0,0,1-6.2-2.416.387.387,0,0,0-.335-.153q-4.92.005-9.841,0a1.772,1.772,0,0,1-1.9-1.888c0-1.29.014-2.58-.006-3.87A2.076,2.076,0,0,1,990.454-8.414Zm10.012-13.717h-8.733a.9.9,0,0,0-1,1q0,2.089,0,4.178a.9.9,0,0,0,1.021,1.017H1009.2a.9.9,0,0,0,1-1q0-2.089,0-4.178a.9.9,0,0,0-1.021-1.016Zm9.732,11.378c0-1.131,0-2.229,0-3.327a.892.892,0,0,0-.974-.975H991.732a.9.9,0,0,0-1,1q0,2.09,0,4.179a.9.9,0,0,0,1.023,1.015q4.854,0,9.708,0A.626.626,0,0,0,1002-9.1a6.5,6.5,0,0,1,6.091-2.334A6.53,6.53,0,0,1,1010.2-10.752Zm-8.846,5.869A5.752,5.752,0,0,0,1007.1.868a5.754,5.754,0,0,0,5.752-5.748,5.753,5.753,0,0,0-5.748-5.751A5.751,5.751,0,0,0,1001.352-4.884Zm-.129-3.094h-9.514a.89.89,0,0,0-.972.976q0,2.1,0,4.2a.9.9,0,0,0,1.02,1.017h9.467A6.709,6.709,0,0,1,1001.222-7.977Z" transform="translate(-989.845 23.016)" fill="#fff"/>
  <path id="Path_1508" data-name="Path 1508" d="M1051.222,58.182h-.856v-.86h.856Z" transform="translate(-1047.689 -53.769)" fill="#fff"/>
  <path id="Path_1509" data-name="Path 1509" d="M1090.218,58.127V57.27h.857v.857Z" transform="translate(-1085.779 -53.719)" fill="#fff"/>
  <path id="Path_1510" data-name="Path 1510" d="M1131.168,57.264v.857h-.861v-.857Z" transform="translate(-1124.094 -53.713)" fill="#fff"/>
  <path id="Path_1511" data-name="Path 1511" d="M1051.244,217.343v.858h-.857v-.858Z" transform="translate(-1047.709 -206.712)" fill="#fff"/>
  <path id="Path_1512" data-name="Path 1512" d="M1091.12,218.251h-.858v-.857h.858Z" transform="translate(-1085.821 -206.761)" fill="#fff"/>
  <path id="Path_1513" data-name="Path 1513" d="M1131.2,218.16h-.858V217.3h.858Z" transform="translate(-1124.128 -206.669)" fill="#fff"/>
  <path id="Path_1514" data-name="Path 1514" d="M1303.083,323.352l.584.61-4.947,4.944-2.453-2.453.622-.574,1.832,1.831Z" transform="translate(-1282.714 -308.032)" fill="#fff"/>
  <path id="Path_1515" data-name="Path 1515" d="M1050.358,377.218h.857v.857h-.857Z" transform="translate(-1047.681 -359.516)" fill="#fff"/>
  <path id="Path_1516" data-name="Path 1516" d="M1090.241,377.2h.859v.863h-.859Z" transform="translate(-1085.8 -359.496)" fill="#fff"/>
  <path id="Path_1517" data-name="Path 1517" d="M1131.1,378.235h-.859v-.857h.859Z" transform="translate(-1124.036 -359.669)" fill="#fff"/>
</svg>
