<svg id="Group_1" data-name="Group 1" xmlns="http://www.w3.org/2000/svg" width="20.757" height="25.946" viewBox="0 0 20.757 25.946">
  <path id="Path_1" data-name="Path 1" d="M1111.925,785.913a30.689,30.689,0,0,1,.177-3.133,6.469,6.469,0,0,1,12.727.008,31.136,31.136,0,0,1,.177,3.125c.967,0,1.951,0,2.936,0,.722,0,.9.173.9.88q0,6.7,0,13.4a3.2,3.2,0,0,1-3.22,3.226q-7.161.009-14.321,0a3.2,3.2,0,0,1-3.21-3.235q-.007-6.7,0-13.4c0-.687.179-.868.855-.871C1109.932,785.911,1110.92,785.913,1111.925,785.913Zm11.732,1.332h-10.383c0,.811,0,1.584,0,2.357,0,.58-.224.871-.664.843-.51-.032-.639-.368-.632-.824.013-.787,0-1.575,0-2.382h-2.6v.562q0,6.053,0,12.106a2,2,0,0,0,2.246,2.224q6.836,0,13.673,0a2.009,2.009,0,0,0,2.247-2.224q0-6.08,0-12.16v-.513h-2.6c0,.831-.006,1.637,0,2.443,0,.444-.161.74-.633.769-.424.027-.658-.258-.661-.79C1123.653,788.864,1123.657,788.074,1123.657,787.245Zm0-1.355c0-.745.04-1.431-.008-2.111a5.03,5.03,0,0,0-3.026-4.51,4.914,4.914,0,0,0-5.337.621c-2.009,1.537-2.166,3.71-1.962,6Z" transform="translate(-1108.087 -777.48)" fill="#fff"/>
</svg>
