<svg xmlns="http://www.w3.org/2000/svg" width="56" height="56" viewBox="0 0 56 56"><g transform="translate(-445 -299)"><g transform="translate(445 299)"><circle cx="28" cy="28" r="28" fill="#dfdfdf"/></g><path d="M290.563,636.9a5.6,5.6,0,1,0-5.46,0,9.4,9.4,0,0,0-6.649,8.974.561.561,0,1,0,1.123,0,8.253,8.253,0,1,1,16.506,0,.561.561,0,1,0,1.123,0A9.4,9.4,0,0,0,290.563,636.9Zm-7.212-4.88a4.478,4.478,0,1,1,4.484,4.472A4.49,4.49,0,0,1,283.35,632.023Z" transform="translate(185.184 -309.484)" fill="#fff"/></g></svg>