<svg xmlns="http://www.w3.org/2000/svg" width="27.097" height="27.097" viewBox="0 0 27.097 27.097">
  <g id="Group_3649" data-name="Group 3649" transform="translate(-1402 -386)">
    <g id="Path_1458" data-name="Path 1458" transform="translate(1402 386)" fill="none">
      <path d="M13.548,0A13.549,13.549,0,1,1,0,13.549,13.548,13.548,0,0,1,13.548,0Z" stroke="none"/>
      <path d="M 13.54833889007568 1.000003814697266 C 10.19655799865723 1.000003814697266 7.045398712158203 2.305273056030273 4.675329208374023 4.675373077392578 C 2.305259704589844 7.045482635498047 0.9999980926513672 10.19669342041016 0.9999980926513672 13.54852294921875 C 0.9999980926513672 16.90035247802734 2.305259704589844 20.05156326293945 4.675329208374023 22.42167282104492 C 7.045398712158203 24.79177284240723 10.19655799865723 26.09704208374023 13.54833889007568 26.09704208374023 C 16.90011978149414 26.09704208374023 20.05127906799316 24.79177284240723 22.42134857177734 22.42167282104492 C 24.79141807556152 20.05156326293945 26.0966796875 16.90035247802734 26.0966796875 13.54852294921875 C 26.0966796875 10.19669342041016 24.79141807556152 7.045482635498047 22.42134857177734 4.675373077392578 C 20.05127906799316 2.305273056030273 16.90011978149414 1.000003814697266 13.54833889007568 1.000003814697266 M 13.54833889007568 3.814697265625e-06 C 21.03087997436523 3.814697265625e-06 27.0966796875 6.065883636474609 27.0966796875 13.54852294921875 C 27.0966796875 21.03116226196289 21.03087997436523 27.09704208374023 13.54833889007568 27.09704208374023 C 6.065799713134766 27.09704208374023 -1.9073486328125e-06 21.03116226196289 -1.9073486328125e-06 13.54852294921875 C -1.9073486328125e-06 6.065883636474609 6.065799713134766 3.814697265625e-06 13.54833889007568 3.814697265625e-06 Z" stroke="none" fill="#dfdfdf"/>
    </g>
    <g id="Dropdown_icon" data-name="Dropdown icon" transform="translate(1410.781 396.689)">
      <path id="Path_908" data-name="Path 908" d="M3.307,0,0,3.663,5.738,9.538" transform="translate(0 5.738) rotate(-90)" fill="none" stroke="#d82f25" stroke-linecap="round" stroke-linejoin="round" stroke-width="1"/>
    </g>
  </g>
</svg>
