<svg xmlns="http://www.w3.org/2000/svg" width="28.002" height="28" viewBox="0 0 28.002 28"><g transform="translate(0.005)"><g transform="translate(-0.005)"><g transform="translate(0)"><rect width="28" height="28" transform="translate(0.001)" fill="none"/><path d="M23.329,55.232H4.664A4.67,4.67,0,0,1,0,50.564v-7a1.022,1.022,0,1,1,2.041,0v7a2.629,2.629,0,0,0,2.626,2.624H23.329a2.629,2.629,0,0,0,2.626-2.624v-7a1.022,1.022,0,1,1,2.041,0v7a4.67,4.67,0,0,1-4.668,4.668Z" transform="translate(0.005 -30.592)" fill="#888"/><path d="M41.2,21.019a.825.825,0,0,0-1.17-.034l-3.22,3.049v-11.2a.84.84,0,1,0-1.68.022V24.034l-3.22-3.049a.825.825,0,0,0-1.17.034.823.823,0,0,0-.227.594.809.809,0,0,0,.26.577l4.785,4.519a.6.6,0,0,0,.412.165.608.608,0,0,0,.414-.165l4.782-4.519a.809.809,0,0,0,.26-.577A.823.823,0,0,0,41.2,21.019Z" transform="translate(-21.965 -8.634)" fill="#888"/></g></g></g></svg>