<svg xmlns="http://www.w3.org/2000/svg" width="18.182" height="18.183" viewBox="0 0 18.182 18.183">
  <g id="Group_3070" data-name="Group 3070" transform="translate(0)">
    <path id="Path_1491" data-name="Path 1491" d="M-91.041,606.094c2.427,0,2.715.009,3.673.053a5.039,5.039,0,0,1,1.689.313,2.815,2.815,0,0,1,1.045.68,2.808,2.808,0,0,1,.68,1.045,5.016,5.016,0,0,1,.313,1.688c.044.959.053,1.246.053,3.674s-.009,2.715-.053,3.673a5.016,5.016,0,0,1-.313,1.688,2.814,2.814,0,0,1-.68,1.046,2.821,2.821,0,0,1-1.045.68,5.022,5.022,0,0,1-1.689.313c-.959.043-1.246.053-3.673.053s-2.715-.009-3.674-.053a5.021,5.021,0,0,1-1.688-.313,2.816,2.816,0,0,1-1.045-.68,2.816,2.816,0,0,1-.68-1.046,5.021,5.021,0,0,1-.313-1.688c-.044-.959-.053-1.246-.053-3.673s.01-2.715.053-3.674a5.021,5.021,0,0,1,.313-1.688,2.809,2.809,0,0,1,.68-1.045,2.809,2.809,0,0,1,1.045-.68,5.038,5.038,0,0,1,1.688-.313c.959-.044,1.246-.053,3.674-.053m0-1.638c-2.469,0-2.779.011-3.748.055a6.664,6.664,0,0,0-2.207.423,4.464,4.464,0,0,0-1.61,1.048,4.462,4.462,0,0,0-1.048,1.61,6.666,6.666,0,0,0-.423,2.207c-.044.97-.055,1.279-.055,3.748s.01,2.779.055,3.748a6.662,6.662,0,0,0,.423,2.206,4.457,4.457,0,0,0,1.048,1.61A4.464,4.464,0,0,0-97,622.162a6.681,6.681,0,0,0,2.207.423c.97.044,1.279.055,3.748.055s2.779-.011,3.748-.055a6.677,6.677,0,0,0,2.206-.423,4.453,4.453,0,0,0,1.61-1.049,4.45,4.45,0,0,0,1.049-1.61A6.678,6.678,0,0,0-82,617.3c.044-.97.055-1.279.055-3.748s-.011-2.779-.055-3.748a6.682,6.682,0,0,0-.423-2.207,4.456,4.456,0,0,0-1.049-1.61,4.453,4.453,0,0,0-1.61-1.048,6.66,6.66,0,0,0-2.206-.423c-.97-.044-1.279-.055-3.748-.055" transform="translate(100.132 -604.456)" fill="#dfdfdf"/>
    <path id="Path_1492" data-name="Path 1492" d="M-88.494,611.427a4.668,4.668,0,0,0-4.668,4.668,4.668,4.668,0,0,0,4.668,4.668,4.668,4.668,0,0,0,4.668-4.668,4.668,4.668,0,0,0-4.668-4.668m0,7.7a3.03,3.03,0,0,1-3.031-3.03,3.03,3.03,0,0,1,3.031-3.031,3.03,3.03,0,0,1,3.03,3.031,3.03,3.03,0,0,1-3.03,3.03" transform="translate(97.585 -607.004)" fill="#dfdfdf"/>
    <path id="Path_1493" data-name="Path 1493" d="M-77.695,610.508a1.091,1.091,0,0,1-1.091,1.091,1.091,1.091,0,0,1-1.091-1.091,1.091,1.091,0,0,1,1.091-1.091,1.091,1.091,0,0,1,1.091,1.091" transform="translate(92.73 -606.269)" fill="#dfdfdf"/>
  </g>
</svg>
