<svg xmlns="http://www.w3.org/2000/svg" width="16.621" height="16.628" viewBox="0 0 16.621 16.628">
  <g id="Group_3069" data-name="Group 3069" transform="translate(0 0)">
    <g id="Group_3068" data-name="Group 3068">
      <rect id="Rectangle_1840" data-name="Rectangle 1840" width="3.432" height="11.086" transform="translate(0.33 5.543)" fill="#888"/>
      <path id="Path_1486" data-name="Path 1486" d="M239.661,608.315a2.046,2.046,0,1,0-2.029-2.046A2.037,2.037,0,0,0,239.661,608.315Z" transform="translate(-237.632 -604.223)" fill="#888"/>
    </g>
    <path id="Path_1487" data-name="Path 1487" d="M250.308,618.03c0-1.558.717-2.487,2.091-2.487,1.261,0,1.868.892,1.868,2.487v5.819h3.415v-7.019c0-2.97-1.683-4.406-4.033-4.406a3.865,3.865,0,0,0-3.341,1.832v-1.493h-3.292v11.085h3.292Z" transform="translate(-241.062 -607.221)" fill="#888"/>
  </g>
</svg>
