<svg id="Group_380" data-name="Group 380" xmlns="http://www.w3.org/2000/svg" width="15.927" height="11.664" viewBox="0 0 15.927 11.664">
  <path id="Path_790" data-name="Path 790" d="M283.944,380.662h-.029a.487.487,0,0,0-.485.5.512.512,0,0,0,.514.5.5.5,0,0,0,0-1Z" transform="translate(-283.43 -380.662)" fill="#fff"/>
  <path id="Path_791" data-name="Path 791" d="M287.776,381.662h11.08a.5.5,0,0,0,0-1h-11.08a.5.5,0,0,0,0,1Z" transform="translate(-283.43 -380.662)" fill="#fff"/>
  <path id="Path_792" data-name="Path 792" d="M283.944,385.994h-.029a.487.487,0,0,0-.485.5.512.512,0,0,0,.514.5.5.5,0,0,0,0-1Z" transform="translate(-283.43 -380.662)" fill="#fff"/>
  <path id="Path_793" data-name="Path 793" d="M298.856,385.994h-11.08a.5.5,0,0,0,0,1h11.08a.5.5,0,0,0,0-1Z" transform="translate(-283.43 -380.662)" fill="#fff"/>
  <path id="Path_794" data-name="Path 794" d="M283.944,391.326h-.029a.488.488,0,0,0-.485.5.512.512,0,0,0,.514.5.5.5,0,0,0,0-1Z" transform="translate(-283.43 -380.662)" fill="#fff"/>
  <path id="Path_795" data-name="Path 795" d="M298.856,391.326h-11.08a.5.5,0,0,0,0,1h11.08a.5.5,0,0,0,0-1Z" transform="translate(-283.43 -380.662)" fill="#fff"/>
</svg>
