<svg xmlns="http://www.w3.org/2000/svg" width="17.701" height="17.02" viewBox="0 0 17.701 17.02">
  <path id="Path_1559" data-name="Path 1559" d="M78.341,48.234a1.494,1.494,0,0,1-.415,1.557L74.813,52.8l.726,4.255a1.364,1.364,0,0,1-.311,1.245,1.719,1.719,0,0,1-1.245.519,1.924,1.924,0,0,1-.726-.208l-3.84-1.972-3.632,1.972a1.455,1.455,0,0,1-1.868-.415,1.364,1.364,0,0,1-.311-1.245l.726-4.255-3.113-3.009A1.494,1.494,0,0,1,60.8,48.13a1.607,1.607,0,0,1,1.245-1.038L66.3,46.47l1.868-3.84a1.5,1.5,0,0,1,1.349-.83,1.39,1.39,0,0,1,1.349.83l1.868,3.84,4.255.623A1.56,1.56,0,0,1,78.341,48.234Z" transform="translate(-60.722 -41.8)" fill="#d82f25"/>
</svg>
