<svg xmlns="http://www.w3.org/2000/svg" width="18.748" height="18.047" viewBox="0 0 18.748 18.047">
  <path id="Path_1560" data-name="Path 1560" d="M97.23,49.791,94.116,52.8l.726,4.255a1.364,1.364,0,0,1-.311,1.245,1.719,1.719,0,0,1-1.245.519,1.924,1.924,0,0,1-.726-.208L88.72,56.64l-3.736,1.972a1.455,1.455,0,0,1-1.868-.415,1.364,1.364,0,0,1-.311-1.245l.726-4.255-3.113-3.009A1.494,1.494,0,0,1,80,48.13a1.607,1.607,0,0,1,1.245-1.038L85.5,46.47l1.868-3.84a1.5,1.5,0,0,1,1.349-.83,1.39,1.39,0,0,1,1.349.83l1.868,3.84,4.255.623a1.607,1.607,0,0,1,1.245,1.038A1.387,1.387,0,0,1,97.23,49.791Z" transform="translate(-79.398 -41.3)" fill="none" stroke="#d82f25" stroke-width="1"/>
</svg>
