<svg id="Group_2861" data-name="Group 2861" xmlns="http://www.w3.org/2000/svg" width="16.027" height="23.795" viewBox="0 0 16.027 23.795">
  <path id="Path_1468" data-name="Path 1468" d="M1031.415,761.236a5.147,5.147,0,0,0,.506-10.08c-.22-.057-.443-.1-.664-.156h-1.195a1.444,1.444,0,0,1-.2.062,5.146,5.146,0,0,0,1.556,10.174Zm-.692-9.1a4,4,0,1,1-4.058,3.967A4.006,4.006,0,0,1,1030.723,752.14Z" transform="translate(-1022.644 -751)" fill="#fff"/>
  <path id="Path_1469" data-name="Path 1469" d="M981.192,946.072a2.853,2.853,0,0,1,2.166-2.937,3.441,3.441,0,0,1,.808-.09q3.913-.01,7.826,0a2.822,2.822,0,0,1,2.913,2.831c.027,3.268.01,6.536.008,9.8h1.145c0-3.258.008-6.515,0-9.773a3.98,3.98,0,0,0-4.027-4q-3.945-.009-7.89,0a3.952,3.952,0,0,0-4.083,3.97c-.035,3.267-.017,6.535-.011,9.8h1.146Q981.191,950.874,981.192,946.072Z" transform="translate(-980.035 -931.881)" fill="#fff"/>
</svg>
