<svg xmlns="http://www.w3.org/2000/svg" width="14.552" height="15.548" viewBox="0 0 14.552 15.548">
  <g id="Group_381" data-name="Group 381" transform="translate(0)">
    <path id="Path_650" data-name="Path 650" d="M215.546,328.481l-.207-.224a.738.738,0,0,0-1.081,1.005l.207.223a.738.738,0,0,0,1.081-1Z" transform="translate(-201.191 -314.173)" fill="#fff"/>
    <path id="Path_651" data-name="Path 651" d="M207.045,319.333a6,6,0,0,0,1.573-4.643h0a6.016,6.016,0,1,0-5.993,6.588c.19,0,.383-.009.576-.027a5.973,5.973,0,0,0,2.721-.959l1.921,2.068a.737.737,0,1,0,1.081-1Zm-3.984.449a4.541,4.541,0,0,1-.864-9.04c.146-.014.291-.021.434-.021a4.548,4.548,0,0,1,4.518,4.109h0A4.547,4.547,0,0,1,203.061,319.782Z" transform="translate(-196.614 -309.246)" fill="#fff"/>
  </g>
</svg>
