<svg id="Group_3082" data-name="Group 3082" xmlns="http://www.w3.org/2000/svg" width="22.958" height="22.809" viewBox="0 0 22.958 22.809">
  <path id="Path_1497" data-name="Path 1497" d="M-578.388,446.638q-4.014,0-8.028,0a3.344,3.344,0,0,1-3.061-1.715,3.223,3.223,0,0,1-.45-1.669q-.006-8,0-16.008a3.384,3.384,0,0,1,3.434-3.411q5.512-.007,11.024,0a3.4,3.4,0,0,1,3.421,3.306c.006.144,0,.287,0,.431q0,7.92,0,15.841a2.056,2.056,0,0,0,1.267,1.993,1.987,1.987,0,0,0,2.731-1.79q.026-4.421,0-8.843a2.2,2.2,0,0,0-2.229-2.145c-.088,0-.176,0-.263,0a.547.547,0,0,1-.555-.541.544.544,0,0,1,.53-.519,3.293,3.293,0,0,1,3.5,2.522,3.684,3.684,0,0,1,.087.758q.009,4.326,0,8.651a3.087,3.087,0,0,1-3.144,3.14C-572.876,446.642-575.632,446.637-578.388,446.638Zm5.949-1.092c0-.042.005-.06,0-.072a.58.58,0,0,0-.05-.081,3.435,3.435,0,0,1-.62-2.07c.01-5.312-.008-10.624.015-15.936a2.431,2.431,0,0,0-2.476-2.471c-3.594.031-7.189.009-10.784.012a3.064,3.064,0,0,0-.619.046,2.344,2.344,0,0,0-1.857,2.4c0,5.248.009,10.5-.007,15.744a2.368,2.368,0,0,0,2.443,2.434c4.569-.026,9.138-.009,13.707-.009Z" transform="translate(589.932 -423.83)" fill="#fff"/>
  <path id="Path_1498" data-name="Path 1498" d="M-495.277,517.479q-1.581,0-3.161,0a1.413,1.413,0,0,1-1.481-1.471q-.005-1.628,0-3.257a1.41,1.41,0,0,1,1.471-1.484q3.2-.011,6.394,0a1.4,1.4,0,0,1,1.456,1.45c.01,1.109.012,2.219,0,3.329a1.4,1.4,0,0,1-1.469,1.434C-493.138,517.481-494.208,517.479-495.277,517.479Zm.047-5.145h-3.138c-.368,0-.455.087-.456.448q0,1.545,0,3.091c0,.359.1.456.45.456h6.253c.362,0,.453-.089.453-.45q0-1.545,0-3.091c0-.374-.079-.453-.448-.453Z" transform="translate(504.237 -507.07)" fill="#fff"/>
  <path id="Path_1499" data-name="Path 1499" d="M-496.336,739.978q2.059,0,4.119,0a.557.557,0,0,1,.556.337.443.443,0,0,1-.086.552.946.946,0,0,1-.532.2c-1.532.015-3.065.009-4.6.009q-1.784,0-3.568,0a.56.56,0,0,1-.617-.663.557.557,0,0,1,.606-.432Z" transform="translate(505.333 -724.823)" fill="#fff"/>
  <path id="Path_1500" data-name="Path 1500" d="M-496.375,682.182q-2.059,0-4.119,0a.547.547,0,0,1-.545-.792.584.584,0,0,1,.578-.306q2.035,0,4.071,0t4.095,0c.472,0,.76.386.579.773a.561.561,0,0,1-.564.325C-493.645,682.181-495.01,682.182-496.375,682.182Z" transform="translate(505.36 -668.753)" fill="#fff"/>
  <path id="Path_1501" data-name="Path 1501" d="M-496.315,796.987q2.047,0,4.094,0c.477,0,.771.381.594.765a.578.578,0,0,1-.586.331c-.806,0-1.612,0-2.418,0h-5.722c-.392,0-.635-.193-.657-.513a.531.531,0,0,1,.577-.582c1.006,0,2.011,0,3.017,0Z" transform="translate(505.274 -779.1)" fill="#fff"/>
</svg>
